<svg xmlns="http://www.w3.org/2000/svg" xmlns:xlink="http://www.w3.org/1999/xlink" width="500" zoomAndPan="magnify" viewBox="0 0 375 374.999991" height="500" preserveAspectRatio="xMidYMid meet" version="1.0"><defs><filter x="0%" y="0%" width="100%" height="100%" id="id1"><feColorMatrix values="0 0 0 0 1 0 0 0 0 1 0 0 0 0 1 0 0 0 1 0" color-interpolation-filters="sRGB"/></filter><g/><clipPath id="id2"><path d="M 36.070312 136 L 87 136 L 87 187.714844 L 36.070312 187.714844 Z M 36.070312 136 " clip-rule="nonzero"/></clipPath><mask id="id3"><g filter="url(#id1)"><rect x="-37.5" width="450" fill="#000000" y="-37.499999" height="449.999989" fill-opacity="0.698"/></g></mask><clipPath id="id4"><path d="M 0.0703125 0.800781 L 50.640625 0.800781 L 50.640625 51.714844 L 0.0703125 51.714844 Z M 0.0703125 0.800781 " clip-rule="nonzero"/></clipPath><clipPath id="id5"><rect x="0" width="51" y="0" height="52"/></clipPath><clipPath id="id6"><path d="M 49 136 L 100.570312 136 L 100.570312 187.714844 L 49 187.714844 Z M 49 136 " clip-rule="nonzero"/></clipPath><mask id="id7"><g filter="url(#id1)"><rect x="-37.5" width="450" fill="#000000" y="-37.499999" height="449.999989" fill-opacity="0.698"/></g></mask><clipPath id="id8"><path d="M 1 0.800781 L 51.570312 0.800781 L 51.570312 51.714844 L 1 51.714844 Z M 1 0.800781 " clip-rule="nonzero"/></clipPath><clipPath id="id9"><rect x="0" width="52" y="0" height="52"/></clipPath></defs><g clip-path="url(#id2)"><g mask="url(#id3)"><g transform="matrix(1, 0, 0, 1, 36, 136)"><g clip-path="url(#id5)"><g clip-path="url(#id4)"><path fill="#085fce" d="M 50.398438 33.449219 C 50.398438 38.332031 48.511719 42.921875 45.085938 46.375 C 41.554688 49.9375 36.910156 51.71875 32.269531 51.71875 C 27.628906 51.71875 22.988281 49.9375 19.453125 46.375 L 5.382812 32.1875 C 1.960938 28.734375 0.0742188 24.144531 0.0742188 19.265625 C 0.0742188 14.382812 1.960938 9.792969 5.382812 6.339844 C 12.449219 -0.785156 23.949219 -0.785156 31.019531 6.339844 L 45.085938 20.527344 C 48.511719 23.980469 50.398438 28.566406 50.398438 33.449219 Z M 50.398438 33.449219 " fill-opacity="1" fill-rule="nonzero"/></g></g></g></g></g><g clip-path="url(#id6)"><g mask="url(#id7)"><g transform="matrix(1, 0, 0, 1, 49, 136)"><g clip-path="url(#id9)"><g clip-path="url(#id8)"><path fill="#3de2ff" d="M 51.5625 19.265625 C 51.5625 24.144531 49.679688 28.734375 46.253906 32.1875 L 32.1875 46.375 C 28.652344 49.9375 24.011719 51.71875 19.367188 51.71875 C 14.726562 51.71875 10.085938 49.9375 6.550781 46.375 C 3.128906 42.921875 1.242188 38.332031 1.242188 33.449219 C 1.242188 28.566406 3.128906 23.980469 6.550781 20.527344 L 20.621094 6.339844 C 27.6875 -0.785156 39.1875 -0.785156 46.253906 6.339844 C 49.679688 9.792969 51.5625 14.382812 51.5625 19.265625 Z M 51.5625 19.265625 " fill-opacity="1" fill-rule="nonzero"/></g></g></g></g></g><g fill="#141d37" fill-opacity="1"><g transform="translate(108.894893, 181.046736)"><g><path d="M 5.96875 0 L 5.96875 -24.714844 L 16.558594 -4.75 L 16.558594 -12.398438 L 7.480469 -29.546875 L 2.101562 -29.546875 L 2.101562 0 Z M 24.460938 0 L 24.460938 -29.546875 L 20.59375 -29.546875 L 20.59375 0 Z M 24.460938 0 "/></g></g></g><g fill="#141d37" fill-opacity="1"><g transform="translate(134.571013, 181.046736)"><g><path d="M 2.101562 -29.546875 L 2.101562 -7.398438 L 6.09375 -7.398438 L 6.09375 -14.078125 L 20.761719 -14.039062 L 20.761719 -17.441406 L 6.09375 -17.441406 L 6.09375 -26.183594 L 20.761719 -26.183594 L 20.761719 -29.546875 Z M 2.101562 -3.363281 L 2.101562 0 L 20.761719 0 L 20.761719 -3.363281 Z M 2.101562 -3.363281 "/></g></g></g><g fill="#141d37" fill-opacity="1"><g transform="translate(156.5911, 181.046736)"><g><path d="M 12.566406 -22.066406 L 12.566406 0 L 16.601562 0 L 16.601562 -22.066406 Z M 2.101562 -29.503906 L 2.101562 -26.144531 L 12.566406 -26.144531 L 12.566406 -26.101562 L 16.601562 -26.101562 L 16.601562 -26.144531 L 27.066406 -26.144531 L 27.066406 -29.503906 Z M 2.101562 -29.503906 "/></g></g></g><g fill="#141d37" fill-opacity="1"><g transform="translate(184.914693, 181.046736)"><g><path d="M 14.121094 -16.644531 L 14.121094 -12.691406 C 15.128906 -12.355469 16.011719 -11.808594 16.726562 -11.097656 C 17.652344 -9.960938 17.988281 -8.828125 17.738281 -7.648438 C 17.527344 -6.472656 16.894531 -5.589844 15.804688 -4.960938 C 14.878906 -4.539062 13.871094 -4.246094 12.609375 -4.078125 C 11.390625 -3.949219 10.382812 -3.910156 9.5 -3.949219 C 8.65625 -4.035156 7.4375 -4.078125 5.84375 -4.246094 C 4.285156 -4.414062 3.152344 -4.539062 2.480469 -4.582031 L 2.226562 -0.628906 C 2.984375 -0.628906 4.285156 -0.546875 6.21875 -0.378906 C 8.195312 -0.210938 9.75 -0.167969 10.886719 -0.0859375 C 12.0625 -0.0429688 13.367188 -0.125 14.878906 -0.378906 C 16.433594 -0.628906 17.738281 -1.09375 18.746094 -1.722656 C 20.761719 -3.027344 21.855469 -5.042969 22.023438 -7.734375 C 22.191406 -10.085938 21.601562 -11.9375 20.257812 -13.367188 C 18.996094 -14.792969 16.9375 -15.886719 14.121094 -16.644531 Z M 5.253906 -27.738281 C 3.320312 -26.4375 2.269531 -24.546875 2.101562 -22.023438 C 2.015625 -19.878906 2.5625 -18.15625 3.78125 -16.8125 C 4.960938 -15.636719 7.101562 -14.625 10.128906 -13.785156 L 10.128906 -17.695312 C 9.371094 -17.777344 8.65625 -18.074219 8.070312 -18.578125 C 7.480469 -19.125 7.101562 -19.710938 6.851562 -20.34375 C 6.597656 -21.015625 6.515625 -21.644531 6.640625 -22.316406 C 6.808594 -23.03125 7.144531 -23.621094 7.648438 -24.042969 C 8.238281 -24.460938 8.910156 -24.796875 9.792969 -25.007812 C 10.71875 -25.261719 11.726562 -25.386719 12.859375 -25.386719 C 14.039062 -25.429688 15.003906 -25.429688 15.804688 -25.386719 C 16.644531 -25.386719 17.609375 -25.300781 18.789062 -25.175781 C 19.964844 -25.09375 20.679688 -25.007812 20.847656 -24.964844 L 21.097656 -28.917969 L 18.03125 -29.125 C 16.644531 -29.253906 15.46875 -29.335938 14.5 -29.378906 C 13.574219 -29.464844 12.484375 -29.503906 11.265625 -29.421875 C 10.085938 -29.378906 8.953125 -29.253906 7.945312 -28.957031 C 6.933594 -28.707031 6.050781 -28.285156 5.253906 -27.738281 Z M 5.253906 -27.738281 "/></g></g></g><g fill="#141d37" fill-opacity="1"><g transform="translate(208.195488, 181.046736)"><g><path d="M 12.566406 -22.066406 L 12.566406 0 L 16.601562 0 L 16.601562 -22.066406 Z M 2.101562 -29.503906 L 2.101562 -26.144531 L 12.566406 -26.144531 L 12.566406 -26.101562 L 16.601562 -26.101562 L 16.601562 -26.144531 L 27.066406 -26.144531 L 27.066406 -29.503906 Z M 2.101562 -29.503906 "/></g></g></g><g fill="#141d37" fill-opacity="1"><g transform="translate(236.519086, 181.046736)"><g><path d="M 2.101562 -29.546875 L 2.101562 -7.398438 L 6.09375 -7.398438 L 6.09375 -14.078125 L 20.761719 -14.039062 L 20.761719 -17.441406 L 6.09375 -17.441406 L 6.09375 -26.183594 L 20.761719 -26.183594 L 20.761719 -29.546875 Z M 2.101562 -3.363281 L 2.101562 0 L 20.761719 0 L 20.761719 -3.363281 Z M 2.101562 -3.363281 "/></g></g></g><g fill="#141d37" fill-opacity="1"><g transform="translate(258.539177, 181.046736)"><g><path d="M 2.101562 -29.546875 L 2.101562 -11.894531 L 11.011719 -11.894531 L 16.519531 -0.0429688 L 20.972656 -0.0429688 L 15.214844 -12.355469 C 16.601562 -12.777344 17.738281 -13.367188 18.621094 -14.121094 C 20.34375 -15.636719 21.183594 -17.820312 21.183594 -20.722656 C 21.183594 -23.621094 20.34375 -25.804688 18.621094 -27.277344 C 16.9375 -28.789062 14.457031 -29.546875 11.136719 -29.546875 Z M 6.09375 -26.015625 L 11.136719 -26.015625 C 12.988281 -26.015625 14.417969 -25.597656 15.425781 -24.585938 C 16.433594 -23.621094 16.9375 -22.316406 16.9375 -20.722656 C 16.9375 -19.125 16.433594 -17.90625 15.425781 -16.894531 C 14.417969 -15.929688 12.988281 -15.425781 11.136719 -15.425781 L 6.09375 -15.425781 Z M 2.101562 -7.859375 L 2.101562 0 L 6.09375 0 L 6.09375 -7.859375 Z M 2.101562 -7.859375 "/></g></g></g></svg>